<?xml version="1.0" encoding="UTF-8" standalone="no"?><svg xmlns="http://www.w3.org/2000/svg" xmlns:xlink="http://www.w3.org/1999/xlink" contentScriptType="application/ecmascript" contentStyleType="text/css" height="265px" preserveAspectRatio="none" style="width:946px;height:265px;" version="1.1" viewBox="0 0 946 265" width="946px" zoomAndPan="magnify"><defs><filter height="300%" id="f1ndcxus8nis0z" width="300%" x="-1" y="-1"><feGaussianBlur result="blurOut" stdDeviation="2.0"/><feColorMatrix in="blurOut" result="blurOut2" type="matrix" values="0 0 0 0 0 0 0 0 0 0 0 0 0 0 0 0 0 0 .4 0"/><feOffset dx="4.0" dy="4.0" in="blurOut2" result="blurOut3"/><feBlend in="SourceGraphic" in2="blurOut3" mode="normal"/></filter></defs><g><!--MD5=[13c7745981a6abb6004f7738a8ca5078]
entity 1--><rect fill="#FEFECE" filter="url(#f1ndcxus8nis0z)" height="36.4883" rx="35" ry="35" style="stroke: #000000; stroke-width: 1.5;" width="264" x="6" y="8"/><text fill="#000000" font-family="sans-serif" font-size="14" lengthAdjust="spacingAndGlyphs" textLength="244" x="16" y="31.5352">Randomly choose k starting centers</text><!--MD5=[773709cb2207c097691e7e7d3d2cc787]
entity 2--><rect fill="#FEFECE" filter="url(#f1ndcxus8nis0z)" height="36.4883" rx="35" ry="35" style="stroke: #000000; stroke-width: 1.5;" width="384" x="305" y="8"/><text fill="#000000" font-family="sans-serif" font-size="14" lengthAdjust="spacingAndGlyphs" textLength="364" x="315" y="31.5352">Calculate the distance from each point to each center</text><!--MD5=[5721696d2af8d327c8f4e7ea88061d17]
entity 3--><rect fill="#FEFECE" filter="url(#f1ndcxus8nis0z)" height="36.4883" rx="35" ry="35" style="stroke: #000000; stroke-width: 1.5;" width="284" x="83" y="105"/><text fill="#000000" font-family="sans-serif" font-size="14" lengthAdjust="spacingAndGlyphs" textLength="264" x="93" y="128.5352">Assign each point to the closest center</text><!--MD5=[ca8cb0432c9090f8973c99138b4c3ca0]
entity 4--><rect fill="#FEFECE" filter="url(#f1ndcxus8nis0z)" height="36.4883" rx="35" ry="35" style="stroke: #000000; stroke-width: 1.5;" width="533" x="402.5" y="105"/><text fill="#000000" font-family="sans-serif" font-size="14" lengthAdjust="spacingAndGlyphs" textLength="513" x="412.5" y="128.5352">Recalculate centers such that each is the middle of the points assigned to it</text><!--MD5=[fad6a9c1e4f80769a7fea8e2093188d9]
entity 5--><rect fill="#FEFECE" filter="url(#f1ndcxus8nis0z)" height="36.4883" rx="35" ry="35" style="stroke: #000000; stroke-width: 1.5;" width="56" x="641" y="218"/><text fill="#000000" font-family="sans-serif" font-size="14" lengthAdjust="spacingAndGlyphs" textLength="36" x="651" y="241.5352">Done</text><!--MD5=[0ba0d8a0fd0e641c23f69743a446dfe6]
link 1 to 2--><path d="M270.1709,26 C279.9798,26 289.7886,26 299.5975,26 " fill="none" id="1-&gt;2" style="stroke: #A80036; stroke-width: 1.0;"/><polygon fill="#A80036" points="304.7269,26,295.7269,22,299.7269,26,295.7269,30,304.7269,26" style="stroke: #A80036; stroke-width: 1.0;"/><!--MD5=[eeb69082328d10abd3b14fdeede0d8a3]
link 2 to 3--><path d="M446.4763,44.0176 C399.3916,60.8089 329.3197,85.7977 280.6507,103.154 " fill="none" id="2-&gt;3" style="stroke: #A80036; stroke-width: 1.0;"/><polygon fill="#A80036" points="275.7139,104.9145,285.5346,105.6588,280.4234,103.2349,282.8473,98.1237,275.7139,104.9145" style="stroke: #A80036; stroke-width: 1.0;"/><!--MD5=[b1f22f0c97e7f2b556a5a2d67c42ac53]
link 3 to 4--><path d="M367.2188,123 C377.1736,123 387.1284,123 397.0833,123 " fill="none" id="3-&gt;4" style="stroke: #A80036; stroke-width: 1.0;"/><polygon fill="#A80036" points="402.289,123,393.289,119,397.289,123,393.289,127,402.289,123" style="stroke: #A80036; stroke-width: 1.0;"/><!--MD5=[1da6c6d426276e19ef55dd2046430a66]
reverse link 2 to 4--><path d="M533.3789,46.516 C564.0566,63.8168 607.5393,88.339 636.9309,104.9145 " fill="none" id="2&lt;-4" style="stroke: #A80036; stroke-width: 1.0;"/><polygon fill="#A80036" points="528.9488,44.0176,534.8232,51.9228,533.304,46.4737,538.753,44.9545,528.9488,44.0176" style="stroke: #A80036; stroke-width: 1.0;"/><!--MD5=[fb7a877824a531edc27ce1774c90edf7]
link 4 to 5--><path d="M669,141.1554 C669,160.595 669,191.5012 669,212.7174 " fill="none" id="4-&gt;5" style="stroke: #A80036; stroke-width: 1.0;"/><polygon fill="#A80036" points="669,217.8897,673,208.8897,669,212.8897,665,208.8897,669,217.8897" style="stroke: #A80036; stroke-width: 1.0;"/><text fill="#000000" font-family="sans-serif" font-size="13" lengthAdjust="spacingAndGlyphs" textLength="193" x="670" y="184.5684">Centers haven't changed much</text><!--MD5=[ed1969d232310044e354978067e3c565]
@startuml
storage 1 as "Randomly choose k starting centers"
storage 2 as "Calculate the distance from each point to each center"
storage 3 as "Assign each point to the closest center"
storage 4 as "Recalculate centers such that each is the middle of the points assigned to it"
storage 5 as "Done"

1 -right-> 2
2 -down-> 3
3 -right-> 4
4 -left-> 2
4 -down-> 5: Centers haven't changed much
@enduml

PlantUML version 1.2020.07(Sun Apr 19 06:42:40 CDT 2020)
(GPL source distribution)
Java Runtime: OpenJDK Runtime Environment
JVM: OpenJDK 64-Bit Server VM
Java Version: 1.8.0_212-b03
Operating System: Mac OS X
Default Encoding: UTF-8
Language: en
Country: US
--></g></svg>